# xmcd
#
# Track frame offsets:
#	150
#	20254
#	36229
#	54520
#	74757
#	91083
#	107884
#	127170
#	143085
#	162997
#	188346
#	206765
#	231229
#	251958
#	270511
#	287531
#
# Disc length: 4149 seconds
#
# Revision: 1
# Processed by: cddbd v1.5.1PL2 Copyright (c) Steve Scherf et al.
# Submitted via: audiograbber 1.81.02
#
DISCID=eb103310
DTITLE=Danny Plett - Best Of ... (www.gerth.de)
DYEAR=2006
DGENRE=Gospel
TTITLE0=Rock In The River
TTITLE1=Ein Feuer
TTITLE2=Someday
TTITLE3=Every Wish
TTITLE4=Here And Now
TTITLE5=Lay Your Burdens Down
TTITLE6=We Will Bless Him
TTITLE7=Willkommen
TTITLE8=We Stand United
TTITLE9=Wie ein Strom
TTITLE10=Du sagst Ja
TTITLE11=Du sieht die Wunden
TTITLE12=Heaven Knows
TTITLE13=Take Me There
TTITLE14=The Road
TTITLE15=Portrait
EXTD=
EXTT0=
EXTT1=
EXTT2=
EXTT3=
EXTT4=
EXTT5=
EXTT6=
EXTT7=
EXTT8=
EXTT9=
EXTT10=
EXTT11=
EXTT12=
EXTT13=
EXTT14=
EXTT15=
PLAYORDER=
